<?xml version="1.0" encoding="UTF-8" standalone="no"?>
<svg
   viewBox="1984.944 330.722 731.51008 120"
   version="1.1"
   id="svg68"
   sodipodi:docname="nifi-openshift-banner.svg"
   width="731.51007"
   height="120"
   inkscape:version="1.1.1 (3bf5ae0d25, 2021-09-20)"
   inkscape:export-filename="/home/gmoutier/Dev/repos/nifi-on-openshift/doc/img/nifi-openshift.png"
   inkscape:export-xdpi="270.53735"
   inkscape:export-ydpi="270.53735"
   xmlns:inkscape="http://www.inkscape.org/namespaces/inkscape"
   xmlns:sodipodi="http://sodipodi.sourceforge.net/DTD/sodipodi-0.dtd"
   xmlns="http://www.w3.org/2000/svg"
   xmlns:svg="http://www.w3.org/2000/svg"
   xmlns:rdf="http://www.w3.org/1999/02/22-rdf-syntax-ns#"
   xmlns:cc="http://creativecommons.org/ns#"
   xmlns:dc="http://purl.org/dc/elements/1.1/">
  <metadata
     id="metadata72">
    <rdf:RDF>
      <cc:Work
         rdf:about="">
        <dc:format>image/svg+xml</dc:format>
        <dc:type
           rdf:resource="http://purl.org/dc/dcmitype/StillImage" />
      </cc:Work>
    </rdf:RDF>
  </metadata>
  <sodipodi:namedview
     pagecolor="#ffffff"
     bordercolor="#666666"
     borderopacity="1"
     objecttolerance="10"
     gridtolerance="10"
     guidetolerance="10"
     inkscape:pageopacity="0"
     inkscape:pageshadow="2"
     inkscape:window-width="1920"
     inkscape:window-height="1017"
     id="namedview70"
     showgrid="false"
     inkscape:zoom="1.2804979"
     inkscape:cx="372.12088"
     inkscape:cy="117.14193"
     inkscape:window-x="1920"
     inkscape:window-y="32"
     inkscape:window-maximized="1"
     inkscape:current-layer="layer1"
     inkscape:pagecheckerboard="0"
     showguides="true"
     inkscape:guide-bbox="true">
    <sodipodi:guide
       position="199.33488,45.218699"
       orientation="0,-1"
       id="guide342" />
  </sodipodi:namedview>
  <defs
     id="defs4">
    <style
       id="style2">.a{fill:#728e9b;}.b{fill:#b9c6cd;}</style>
    <style
       id="style294">.cls-1{fill:#e00;}</style>
  </defs>
  <g
     inkscape:groupmode="layer"
     id="layer2"
     inkscape:label="bck"
     style="display:inline"
     sodipodi:insensitive="true"
     transform="translate(235.88017,38.694785)">
    <rect
       style="fill:#ffffff;stroke:#ffffff;stroke-width:4.57586"
       id="rect33343"
       width="861.09662"
       height="185.08362"
       x="1668.1473"
       y="261.02869" />
  </g>
  <text
     xml:space="preserve"
     style="font-style:normal;font-weight:normal;font-size:40px;line-height:1.25;font-family:sans-serif;letter-spacing:0px;word-spacing:0px;fill:#000000;fill-opacity:1;stroke:none"
     x="2361.9578"
     y="384.94785"
     id="text10224"><tspan
       sodipodi:role="line"
       id="tspan10222"
       x="2361.9578"
       y="384.94785" /></text>
  <g
     inkscape:groupmode="layer"
     id="layer1"
     inkscape:label="banner"
     style="display:inline"
     transform="translate(235.88017,38.694785)">
    <g
       id="g999"
       transform="matrix(2.8162109,0,0,2.8162109,-3892.8134,-663.84201)"
       inkscape:export-filename="/home/gmoutier/Dev/repos/nifi-on-openshift/doc/img/nifi-openshift.png"
       inkscape:export-xdpi="96"
       inkscape:export-ydpi="96">
      <g
         transform="translate(0,-1.9679248)"
         id="g952">
        <g
           transform="matrix(0.42404355,0,0,0.42404355,2003.9083,348.14528)"
           id="g12">
          <path
             class="a"
             d="m 14.683,32.525 v 6.036 h 0.192 a 13.416,13.416 0 0 1 5.461,-5.6 A 16.158,16.158 0 0 1 28,31.183 q 6.323,0 9.724,3.449 3.401,3.449 3.4,11.209 V 84.068 H 27.9 V 48.524 q 0,-4.024 -1.341,-5.6 a 5.361,5.361 0 0 0 -4.312,-1.581 q -6.995,0 -6.994,8.527 v 34.2 H 2.037 V 32.525 Z"
             transform="translate(-2.037,-14.896)"
             id="path6"
             inkscape:connector-curvature="0"
             style="fill:#728e9b" />
          <rect
             class="a"
             width="13.222"
             height="11.305"
             transform="translate(47.972)"
             id="rect8"
             x="0"
             y="0"
             style="fill:#728e9b" />
          <rect
             class="a"
             width="13.222"
             height="51.543999"
             transform="translate(47.972,17.629)"
             id="rect10"
             x="0"
             y="0"
             style="fill:#728e9b" />
        </g>
        <g
           transform="matrix(0.42404355,0,0,0.42404355,2003.3575,348.59223)"
           id="g48">
          <path
             class="b"
             d="m 4.626,7.57 2.382,9 H 5.117 l -0.416,-1.9 h -2.4 l -0.416,1.9 H 0 l 2.382,-9 z M 4.387,13.179 3.517,9.133 H 3.492 l -0.87,4.046 z"
             transform="translate(0,-7.394)"
             id="path36"
             inkscape:connector-curvature="0"
             style="fill:#b9c6cd" />
          <path
             class="b"
             d="m 15.808,7.57 a 2.617,2.617 0 0 1 1.166,0.233 2.125,2.125 0 0 1 0.763,0.612 2.382,2.382 0 0 1 0.416,0.863 3.914,3.914 0 0 1 0.126,0.99 3.237,3.237 0 0 1 -0.208,1.21 2.19,2.19 0 0 1 -0.58,0.844 2.425,2.425 0 0 1 -0.9,0.492 3.964,3.964 0 0 1 -1.173,0.163 h -0.971 v 3.593 h -1.816 v -9 z m -0.555,4.071 a 1.2,1.2 0 0 0 0.876,-0.328 1.377,1.377 0 0 0 0.334,-1.021 1.6,1.6 0 0 0 -0.289,-1.034 1.189,1.189 0 0 0 -0.97,-0.353 h -0.756 v 2.735 z"
             transform="translate(-4.577,-7.394)"
             id="path38"
             inkscape:connector-curvature="0"
             style="fill:#b9c6cd" />
          <path
             class="b"
             d="m 25.9,7.57 2.382,9 h -1.893 l -0.416,-1.9 h -2.4 l -0.416,1.9 h -1.885 l 2.382,-9 z m -0.239,5.609 -0.87,-4.046 h -0.025 l -0.87,4.046 z"
             transform="translate(-7.708,-7.394)"
             id="path40"
             inkscape:connector-curvature="0"
             style="fill:#b9c6cd" />
          <path
             class="b"
             d="M 37.132,9.078 A 0.872,0.872 0 0 0 36.281,8.63 0.851,0.851 0 0 0 35.72,8.813 1.212,1.212 0 0 0 35.373,9.405 5.052,5.052 0 0 0 35.196,10.476 q -0.051,0.662 -0.05,1.62 a 15.647,15.647 0 0 0 0.069,1.652 3.643,3.643 0 0 0 0.214,0.977 0.9,0.9 0 0 0 0.365,0.466 1.053,1.053 0 0 0 0.511,0.12 1.221,1.221 0 0 0 0.448,-0.082 0.76,0.76 0 0 0 0.359,-0.328 2.143,2.143 0 0 0 0.24,-0.693 6.334,6.334 0 0 0 0.089,-1.178 h 1.815 a 8.1,8.1 0 0 1 -0.114,1.386 3.144,3.144 0 0 1 -0.422,1.147 2.1,2.1 0 0 1 -0.87,0.769 3.294,3.294 0 0 1 -1.456,0.277 3.424,3.424 0 0 1 -1.626,-0.328 2.21,2.21 0 0 1 -0.927,-0.946 4.163,4.163 0 0 1 -0.416,-1.475 17.308,17.308 0 0 1 -0.094,-1.891 17.362,17.362 0 0 1 0.094,-1.884 4.18,4.18 0 0 1 0.416,-1.481 2.324,2.324 0 0 1 0.927,-0.964 3.272,3.272 0 0 1 1.626,-0.347 3.143,3.143 0 0 1 1.532,0.315 2.145,2.145 0 0 1 0.839,0.8 2.776,2.776 0 0 1 0.347,1.046 8.668,8.668 0 0 1 0.07,1.052 H 37.366 A 3.279,3.279 0 0 0 37.132,9.078 Z"
             transform="translate(-12.078,-7.294)"
             id="path42"
             inkscape:connector-curvature="0"
             style="fill:#b9c6cd" />
          <path
             class="b"
             d="m 46.709,7.57 v 3.441 h 2.118 V 7.57 h 1.815 v 9 h -1.815 v -4 h -2.118 v 4 h -1.815 v -9 z"
             transform="translate(-16.267,-7.394)"
             id="path44"
             inkscape:connector-curvature="0"
             style="fill:#b9c6cd" />
          <path
             class="b"
             d="m 61.567,9.058 h -3.215 v 2.118 h 3.025 v 1.487 h -3.025 v 2.42 h 3.34 v 1.487 h -5.155 v -9 h 5.029 v 1.488 z"
             transform="translate(-20.486,-7.394)"
             id="path46"
             inkscape:connector-curvature="0"
             style="fill:#b9c6cd" />
        </g>
        <g
           transform="matrix(0.42404355,0,0,0.42404355,2032.5783,347.90146)"
           id="g56">
          <path
             class="b"
             d="m 108.068,31.949 v -9.006 h 6.706 V 17.1 a 15.765,15.765 0 0 1 0.958,-5.844 9.221,9.221 0 0 1 2.73,-3.832 10.847,10.847 0 0 1 4.359,-2.06 24.587,24.587 0 0 1 5.748,-0.622 q 3.543,0 7.089,0.287 v 9.389 a 7.3,7.3 0 0 0 -1.341,-0.1 h -1.246 a 6.212,6.212 0 0 0 -3.928,0.958 3.9,3.9 0 0 0 -1.15,3.161 v 4.5 h 7.665 v 9.007 h -7.665 v 42.542 h -13.22 V 31.949 Z"
             transform="translate(-108.068,-4.74)"
             id="path50"
             inkscape:connector-curvature="0"
             style="fill:#b9c6cd" />
          <rect
             class="b"
             width="13.221"
             height="11.305"
             transform="translate(35.451,0.575)"
             id="rect52"
             x="0"
             y="0"
             style="fill:#b9c6cd" />
          <rect
             class="b"
             width="13.221"
             height="51.543999"
             transform="translate(35.451,18.203)"
             id="rect54"
             x="0"
             y="0"
             style="fill:#b9c6cd" />
        </g>
      </g>
      <g
         transform="matrix(1.3266673,0,0,1.3266673,-664.77172,-120.4331)"
         id="g967">
        <g
           transform="matrix(0.42404355,0,0,0.42404355,2056.9871,346.62)"
           id="g32">
          <path
             class="a"
             d="M 224.222,73.517 A 25.882,25.882 0 0 1 198.34,47.634 c 0,-12.3 9.641,-24.1 16.236,-32.707 a 96.88,96.88 0 0 0 9.378,-14.759 0.3,0.3 0 0 1 0.538,0 96.853,96.853 0 0 0 9.379,14.76 c 6.593,8.607 16.237,20.4 16.237,32.707 h -15.795 a 0.608,0.608 0 0 0 -0.608,0.608 v 8.876 h -8.874 a 0.608,0.608 0 0 0 -0.608,0.608 v 15.79 z"
             transform="translate(-198.34)"
             id="path14"
             inkscape:connector-curvature="0"
             style="fill:#728e9b" />
          <path
             class="a"
             d="m 249.991,100.636 v -8.451 h -7.846 a 0.608,0.608 0 0 0 -0.608,0.608 v 7.844 z"
             transform="translate(-213.993,-33.403)"
             id="path16"
             inkscape:connector-curvature="0"
             style="fill:#728e9b" />
          <path
             class="a"
             d="m 241.538,115.337 a 25.24,25.24 0 0 0 8.453,-1.625 v -4.257 h -7.846 a 0.608,0.608 0 0 0 -0.608,0.608 z"
             transform="translate(-213.993,-39.661)"
             id="path18"
             inkscape:connector-curvature="0"
             style="fill:#728e9b" />
          <path
             class="a"
             d="m 264.859,85.762 v -8.451 h -7.844 a 0.608,0.608 0 0 0 -0.608,0.608 v 7.843 h 8.451 z"
             transform="translate(-219.381,-28.013)"
             id="path20"
             inkscape:connector-curvature="0"
             style="fill:#728e9b" />
          <path
             class="a"
             d="m 266.745,102.524 0.01,-0.01 a 1.774,1.774 0 0 0 0.508,-1.254 v -6.679 h -8.453 v 8.453 h 6.678 a 1.774,1.774 0 0 0 1.257,-0.51 z"
             transform="translate(-220.251,-34.271)"
             id="path22"
             inkscape:connector-curvature="0"
             style="fill:#728e9b" />
          <path
             class="a"
             d="m 259.711,116.6 a 25.274,25.274 0 0 0 6.249,-3.841 h -6.249 z"
             transform="translate(-220.578,-40.856)"
             id="path24"
             inkscape:connector-curvature="0"
             style="fill:#728e9b" />
          <path
             class="a"
             d="m 277.934,85.762 a 25.17,25.17 0 0 0 1.627,-8.451 h -5.88 v 8.451 z"
             transform="translate(-225.639,-28.013)"
             id="path26"
             inkscape:connector-curvature="0"
             style="fill:#728e9b" />
          <path
             class="a"
             d="m 276.979,101.731 a 25.244,25.244 0 0 0 3.839,-6.25 h -3.839 z"
             transform="translate(-226.835,-34.597)"
             id="path28"
             inkscape:connector-curvature="0"
             style="fill:#728e9b" />
          <path
             class="a"
             d="m 276.979,101.731 a 25.244,25.244 0 0 0 3.839,-6.25 h -3.839 z"
             transform="translate(-226.835,-34.597)"
             id="path30"
             inkscape:connector-curvature="0"
             style="fill:#728e9b" />
        </g>
        <g
           transform="matrix(0.42404355,0,0,0.42404355,2057.7606,351.79672)"
           id="g62">
          <path
             class="b"
             d="m 226.53,19.472 c -0.478,0.667 -0.948,1.339 -1.428,2 -1.516,2.092 -3.113,4.123 -4.676,6.18 q 0.918,0.127 1.843,0.282 c 1.3,-2.183 2.632,-4.352 3.881,-6.567 0.35,-0.62 0.693,-1.246 1.039,-1.87 0.274,-0.489 -0.362,-0.44 -0.659,-0.025 z"
             transform="translate(-208.167,-19.146)"
             id="path58"
             inkscape:connector-curvature="0"
             style="fill:#b9c6cd" />
          <path
             class="b"
             d="m 213.392,37.147 c 0.23,-0.4 0.468,-0.8 0.7,-1.207 -0.7,-0.136 -1.4,-0.262 -2.1,-0.374 h -0.007 a 86.66,86.66 0 0 0 -6.06,9.3 c -3.254,5.9 -5.511,12.495 -4.474,19.3 a 24.215,24.215 0 0 0 8.069,14.569 23.849,23.849 0 0 0 2.93,2.165 0.311,0.311 0 0 0 0.381,-0.487 25.957,25.957 0 0 1 -7,-11.805 c -1.937,-7.144 -0.327,-14.465 2.431,-21.165 a 91.737,91.737 0 0 1 5.13,-10.296 z"
             transform="translate(-201.2,-25.096)"
             id="path60"
             inkscape:connector-curvature="0"
             style="fill:#b9c6cd" />
        </g>
      </g>
    </g>
    <g
       id="g340"
       transform="matrix(0.44741484,0,0,0.44741484,2161.066,294.91894)"
       inkscape:export-filename="/home/gmoutier/Dev/repos/nifi-on-openshift/doc/img/nifi-openshift.png"
       inkscape:export-xdpi="96"
       inkscape:export-ydpi="96">
      <path
         d="m 263.39,220.68 c -21.22,0 -37.86,-16.53 -37.86,-37.54 0,-21.01 16.64,-37.55 37.86,-37.55 21.22,0 38,16.54 38,37.55 0,21.01 -16.79,37.54 -38,37.54 z m 0,-65 c -15.08,0 -26.73,11.86 -26.73,27.46 0,15.6 11.65,27.45 26.73,27.45 15.08,0 26.83,-12 26.83,-27.45 0,-15.45 -11.65,-27.46 -26.83,-27.46 z"
         id="path300" />
      <path
         d="M 311.75,166.6 H 322 v 5.1 a 24.14,24.14 0 0 1 16.22,-5.93 c 15,0 26.74,12 26.74,27.25 0,15.25 -11.76,27.35 -26.94,27.35 a 26.7,26.7 0 0 1 -15.91,-5.2 v 25.9 h -10.4 z m 10.4,14.56 v 23.92 c 3.32,3.85 8.84,6.24 14.76,6.24 10.2,0 17.89,-7.8 17.89,-18.2 0,-10.4 -7.8,-18.3 -17.89,-18.3 -6.03,0 -11.33,2.29 -14.76,6.34 z"
         id="path302" />
      <path
         d="m 400.46,220.47 c -15.6,0 -27.77,-12 -27.77,-27.45 0,-15.29 11.65,-27.25 26.52,-27.25 14.56,0 25.58,12.06 25.58,27.66 v 3 H 383 a 17.84,17.84 0 0 0 17.88,15.18 20.56,20.56 0 0 0 13.41,-4.61 l 6.66,6.56 a 31.61,31.61 0 0 1 -20.49,6.91 z m -17.37,-31.82 h 31.41 c -1.56,-8.11 -7.8,-14.14 -15.5,-14.14 -8,0 -14.35,5.72 -15.91,14.14 z"
         id="path304" />
      <path
         d="m 434.67,166.6 h 10.4 v 5.31 A 21.77,21.77 0 0 1 461,165.56 c 12.16,0 20.69,8.43 20.69,20.7 v 33.28 h -10.4 V 188 c 0,-8.32 -5.1,-13.42 -13.1,-13.42 a 15,15 0 0 0 -13.11,6.86 v 38.07 h -10.4 z"
         id="path306" />
      <path
         d="m 495,199.78 c 7.9,7.69 16,11.44 25.07,11.44 10.5,0 17.68,-5 17.68,-12.17 0,-6.45 -4.16,-9.67 -14.77,-11.44 l -12.17,-2 c -13.31,-2.18 -19.87,-8.42 -19.87,-18.93 0,-12.68 10.61,-20.9 26.84,-20.9 a 48.88,48.88 0 0 1 29.33,9.88 l -6,8.32 c -7.9,-6 -15.7,-8.94 -23.81,-8.94 -9.47,0 -15.81,4.36 -15.81,10.81 0,5.93 3.64,8.74 13,10.3 l 11.7,1.85 c 15.39,2.5 22.36,8.84 22.36,20.18 0,13.41 -11.65,22.36 -29,22.36 a 43.85,43.85 0 0 1 -31.2,-13.11 z"
         id="path308" />
      <path
         d="m 557.39,146.74 10.4,-2.29 v 27.46 a 21.77,21.77 0 0 1 15.91,-6.35 c 12.17,0 20.7,8.43 20.7,20.7 v 33.28 H 594 V 188 c 0,-8.32 -5.1,-13.42 -13.11,-13.42 a 15,15 0 0 0 -13.1,6.86 v 38.07 h -10.4 z"
         id="path310" />
      <path
         d="m 615.21,151.62 a 6.39,6.39 0 0 1 6.35,-6.44 6.45,6.45 0 0 1 0,12.89 6.39,6.39 0 0 1 -6.35,-6.45 z m 11.55,67.92 h -10.4 V 166.6 h 10.4 z"
         id="path312" />
      <path
         d="m 646.93,166.6 v -8 c 0,-11 6.34,-17.05 18,-17.05 a 27.45,27.45 0 0 1 7.49,0.93 v 9.05 a 20.77,20.77 0 0 0 -6.55,-0.94 c -5.72,0 -8.53,2.6 -8.53,8.22 v 7.8 h 15.08 v 8.74 h -15.09 v 44.2 h -10.4 v -44.2 h -12.27 v -8.75 z"
         id="path314" />
      <path
         d="M 688.22,175.34 H 677 v -8.74 h 11.23 v -13.52 l 10.29,-2.5 v 16 h 15.6 v 8.74 h -15.6 V 204 c 0,5.41 2.19,7.39 7.8,7.39 a 20.57,20.57 0 0 0 7.6,-1.25 v 8.73 a 34.32,34.32 0 0 1 -9.88,1.56 c -10.3,0 -15.81,-4.88 -15.81,-14 z"
         id="path316" />
      <path
         class="cls-1"
         d="m 129,85 c 12.51,0 30.61,-2.58 30.61,-17.46 A 14,14 0 0 0 159.3,64.12 L 151.85,31.76 C 150.13,24.64 148.62,21.41 136.12,15.16 126.39,10.19 105.26,2 99,2 93.18,2 91.45,9.54 84.55,9.54 c -6.68,0 -11.64,-5.6 -17.89,-5.6 -6,0 -9.91,4.09 -12.93,12.5 0,0 -8.41,23.72 -9.49,27.16 A 6.43,6.43 0 0 0 44,45.54 C 44,54.76 80.33,85 129,85 m 32.55,-11.42 c 1.73,8.19 1.73,9.05 1.73,10.13 0,14 -15.74,21.77 -36.43,21.77 C 80,105.47 39.08,78.1 39.08,60 a 18.45,18.45 0 0 1 1.51,-7.33 C 23.77,53.52 2,56.54 2,75.72 2,107.2 76.59,146 135.65,146 c 45.28,0 56.7,-20.48 56.7,-36.65 0,-12.72 -11,-27.16 -30.83,-35.78"
         id="path318" />
      <path
         d="m 161.52,73.57 c 1.73,8.19 1.73,9.05 1.73,10.13 0,14 -15.74,21.77 -36.43,21.77 C 80,105.47 39.08,78.1 39.08,60 a 18.45,18.45 0 0 1 1.51,-7.33 l 3.66,-9.06 A 6.43,6.43 0 0 0 44,45.54 C 44,54.76 80.33,85 129,85 c 12.51,0 30.61,-2.58 30.61,-17.46 a 14,14 0 0 0 -0.31,-3.42 z"
         id="path320" />
      <path
         d="m 581.24,94.3 c 0,11.89 7.15,17.67 20.19,17.67 a 52.11,52.11 0 0 0 11.89,-1.68 V 96.51 a 24.84,24.84 0 0 1 -7.68,1.16 c -5.37,0 -7.36,-1.68 -7.36,-6.73 V 69.8 h 15.56 V 55.6 h -15.56 v -18 l -17,3.68 V 55.6 H 570 v 14.2 h 11.25 z m -53,0.32 c 0,-3.68 3.69,-5.47 9.26,-5.47 a 43.12,43.12 0 0 1 10.1,1.26 v 7.15 a 21.51,21.51 0 0 1 -10.6,2.63 c -5.46,0 -8.73,-2.1 -8.73,-5.57 m 5.2,17.56 c 6,0 10.84,-1.26 15.36,-4.31 v 3.37 h 16.82 V 75.58 c 0,-13.56 -9.14,-21 -24.39,-21 -8.52,0 -16.94,2 -26,6.1 l 6.1,12.52 c 6.52,-2.74 12,-4.42 16.83,-4.42 7,0 10.62,2.73 10.62,8.31 v 2.73 a 49.53,49.53 0 0 0 -12.62,-1.58 c -14.31,0 -22.93,6 -22.93,16.73 0,9.78 7.78,17.24 20.19,17.24 m -92.44,-0.94 H 459.1 V 82.42 h 30.29 v 28.82 h 18.09 V 37.62 H 489.43 V 65.91 H 459.14 V 37.62 h -18.09 z m -68.89,-27.9 c 0,-8 6.31,-14.1 14.62,-14.1 a 17.22,17.22 0 0 1 11.78,4.32 V 93 a 16.36,16.36 0 0 1 -11.78,4.42 c -8.2,0 -14.62,-6.1 -14.62,-14.09 m 26.61,27.87 h 16.83 V 33.94 l -17,3.68 v 20.93 a 28.3,28.3 0 0 0 -14.2,-3.68 c -16.19,0 -28.92,12.51 -28.92,28.5 A 28.25,28.25 0 0 0 383.8,112 25.12,25.12 0 0 0 398.73,107.17 Z M 321.54,68.5 c 5.36,0 9.88,3.47 11.67,8.83 H 310 c 1.68,-5.57 5.89,-8.83 11.57,-8.83 m -28.74,14.97 c 0,16.2 13.25,28.82 30.28,28.82 9.36,0 16.2,-2.53 23.25,-8.42 l -11.26,-10 c -2.63,2.74 -6.52,4.21 -11.14,4.21 a 14.39,14.39 0 0 1 -13.68,-8.83 h 39.65 v -4.2 c 0,-17.67 -11.88,-30.39 -28.08,-30.39 a 28.57,28.57 0 0 0 -29,28.81 M 263.49,53.08 c 6,0 9.36,3.78 9.36,8.31 0,4.53 -3.37,8.31 -9.36,8.31 H 245.61 V 53.08 Z m -36,58.16 h 18.09 V 84.42 h 13.77 l 13.89,26.82 h 20.19 l -16.2,-29.45 a 22.27,22.27 0 0 0 13.88,-20.72 c 0,-13.25 -10.41,-23.45 -26,-23.45 h -37.59 z"
         id="path322" />
    </g>
    <text
       xml:space="preserve"
       style="font-style:normal;font-variant:normal;font-weight:normal;font-stretch:normal;font-size:150.198px;line-height:1.25;font-family:Calibri;-inkscape-font-specification:'Calibri, Normal';font-variant-ligatures:normal;font-variant-caps:normal;font-variant-numeric:normal;font-variant-east-asian:normal;letter-spacing:0px;word-spacing:0px;fill:#000000;fill-opacity:1;stroke:none;stroke-width:2.81621"
       x="2046.5615"
       y="397.49973"
       id="text27340"
       inkscape:export-filename="/home/gmoutier/Dev/repos/nifi-on-openshift/doc/img/nifi-openshift.png"
       inkscape:export-xdpi="96"
       inkscape:export-ydpi="96"><tspan
         sodipodi:role="line"
         id="tspan27338"
         x="2046.5615"
         y="397.49973"
         style="font-style:normal;font-variant:normal;font-weight:normal;font-stretch:normal;font-size:150.198px;font-family:Calibri;-inkscape-font-specification:'Calibri, Normal';font-variant-ligatures:normal;font-variant-caps:normal;font-variant-numeric:normal;font-variant-east-asian:normal;stroke-width:2.81621">+</tspan></text>
  </g>
</svg>
